<svg data-v-fde0c5aa="" xmlns="http://www.w3.org/2000/svg" viewBox="0 0 300 300" class="iconLeftSlogan"><!----><defs data-v-fde0c5aa=""><!----></defs><rect data-v-fde0c5aa="" fill="transparent" x="0" y="0" width="300px" height="300px" class="logo-background-square"></rect><defs data-v-fde0c5aa=""><!----></defs><g data-v-fde0c5aa="" id="fbd7771a-161d-4e60-bde1-964ff4782865" fill="#000000" transform="matrix(2.7597058801515484,0,0,2.7597058801515484,118.42709045371407,112.11317202843139)"><path d="M7.94 9.23L7.94 9.23L7.98 6.13L7.98 6.13Q7.97 6.03 7.88 6.03L7.88 6.03L7.88 6.03Q7.78 6.03 7.71 6.13L7.71 6.13L7.71 6.13Q7.03 7.84 5.99 10.84L5.99 10.84L5.99 10.84Q4.94 13.85 4.89 14L4.89 14L4.89 14Q4.84 14.15 4.62 14.37L4.62 14.37L4.62 14.37Q4.40 14.59 4.23 14.59L4.23 14.59L4.23 14.59Q4.06 14.59 4.06 14.32L4.06 14.32L4.06 14.32Q4.05 14.22 4.02 13.39L4.02 13.39L4.02 13.39Q3.99 12.56 3.93 11.69L3.93 11.69L3.93 11.69Q3.88 10.82 3.79 9.89L3.79 9.89L3.79 9.89Q3.70 8.96 3.53 8.36L3.53 8.36L3.53 8.36Q3.36 7.77 3.15 7.77L3.15 7.77L3.15 7.77Q2.79 7.77 1.09 13.51L1.09 13.51L1.09 13.51Q0.87 14.29 0.85 14.32L0.85 14.32L0.85 14.32Q0.80 14.50 0.59 14.64L0.59 14.64L0.59 14.64Q0.39 14.77 0.21 14.77L0.21 14.77L0.21 14.77Q0.06 14.77 0.06 14.55L0.06 14.55L0.06 14.55Q0.15 11.66 0.15 9.77L0.15 9.77L0.15 9.77Q0.15 6.20 0.04 4.97L0.04 4.97L0 4.51L0 4.51Q0 4.41 0.20 4.22L0.20 4.22L0.20 4.22Q0.39 4.03 0.56 4.03L0.56 4.03L0.56 4.03Q0.73 4.03 0.73 4.34L0.73 4.34L0.73 4.44L0.76 5.61L0.76 6.19L0.76 6.19Q0.76 11.52 0.69 12.64L0.69 12.64L0.69 12.64Q0.69 12.89 0.73 12.89L0.73 12.89L0.73 12.89Q0.77 12.89 1.90 9.47L1.90 9.47L1.90 9.47Q3.02 6.05 3.15 5.63L3.15 5.63L3.15 5.63Q3.28 5.21 3.47 4.99L3.47 4.99L3.47 4.99Q3.67 4.77 3.89 4.77L3.89 4.77L3.89 4.77Q4.21 4.77 4.42 6.61L4.42 6.61L4.42 6.61Q4.63 8.44 4.75 10.28L4.75 10.28L4.75 10.28Q4.87 12.11 4.94 12.11L4.94 12.11L4.94 12.11Q5.00 12.11 5.31 11.31L5.31 11.31L5.31 11.31Q5.61 10.51 6.01 9.38L6.01 9.38L6.01 9.38Q6.41 8.25 6.80 7.11L6.80 7.11L6.80 7.11Q7.77 4.40 7.87 4.45L7.87 4.45L7.87 4.45Q7.84 4.44 7.95 4.34L7.95 4.34L7.95 4.34Q8.29 4.06 8.50 4.03L8.50 4.03L8.50 4.03Q8.81 4.07 8.81 4.41L8.81 4.41L8.81 4.77L8.81 4.77Q8.81 5.82 8.85 6.45L8.85 6.45L8.85 6.45Q9.27 13.44 11.97 13.44L11.97 13.44L11.97 13.44Q12.19 13.44 12.38 13.31L12.38 13.31L12.38 13.31Q12.56 13.19 12.62 13.19L12.62 13.19L12.62 13.19Q12.68 13.19 12.77 13.27L12.77 13.27L12.77 13.27Q12.85 13.36 12.85 13.45L12.85 13.45L12.85 13.45Q12.85 13.82 12.09 14.31L12.09 14.31L12.09 14.31Q11.33 14.81 10.60 14.81L10.60 14.81L10.60 14.81Q7.94 14.81 7.94 9.23ZM17.75 11.72L17.75 11.72Q16.79 11.72 16.20 10.95L16.20 10.95L16.20 10.95Q15.61 10.19 15.61 9.29L15.61 9.29L15.61 9.29Q15.61 8.39 16.07 7.26L16.07 7.26L16.07 7.26Q16.52 6.13 17.39 5.21L17.39 5.21L17.39 5.21Q18.26 4.30 19.25 4.14L19.25 4.14L19.25 4.14Q19.24 4.13 19.24 4.07L19.24 4.07L19.24 4.07Q19.24 3.72 19.07 3.59L19.07 3.59L19.07 3.59Q18.91 3.46 18.52 3.46L18.52 3.46L18.52 3.46Q17.61 3.46 16.60 4.47L16.60 4.47L16.60 4.47Q15.60 5.49 14.93 6.94L14.93 6.94L14.93 6.94Q14.27 8.40 14.27 9.63L14.27 9.63L14.27 9.63Q14.27 10.74 14.74 11.72L14.74 11.72L14.74 11.72Q14.98 12.22 15.47 12.53L15.47 12.53L15.47 12.53Q15.96 12.84 16.63 12.84L16.63 12.84L16.63 12.84Q17.84 12.84 18.86 11.48L18.86 11.48L18.86 11.48Q18.30 11.72 17.75 11.72L17.75 11.72ZM18.70 10.44L18.70 10.44L18.70 10.44Q19.14 10.44 19.59 10.30L19.59 10.30L19.59 10.30Q20.45 8.54 20.45 7.03L20.45 7.03L20.45 7.03Q20.45 6.20 20.08 5.60L20.08 5.60L20.08 5.60Q19.71 5.00 19.01 5.00L19.01 5.00L19.01 5.00Q18.12 5.00 17.40 6.00L17.40 6.00L17.40 6.00Q16.69 7.00 16.69 8.13L16.69 8.13L16.69 8.13Q16.69 9.25 17.35 9.85L17.35 9.85L17.35 9.85Q18.02 10.44 18.70 10.44ZM19.50 2.37L19.50 2.37Q19.78 2.37 20.04 2.59L20.04 2.59L20.04 2.59Q20.30 2.81 20.30 3.10L20.30 3.10L20.30 3.10Q20.30 3.39 20.10 3.69L20.10 3.69L20.10 3.69Q19.91 3.99 19.64 4.12L19.64 4.12L19.64 4.12Q20.36 4.12 20.75 4.70L20.75 4.70L20.75 4.70Q21.14 5.28 21.14 6.08L21.14 6.08L21.14 6.08Q21.14 7.87 20.27 9.95L20.27 9.95L20.27 9.95Q20.73 9.62 21.13 9.14L21.13 9.14L21.13 9.14Q21.25 8.97 21.30 8.97L21.30 8.97L21.30 8.97Q21.35 8.97 21.41 9.04L21.41 9.04L21.41 9.04Q21.46 9.10 21.46 9.17L21.46 9.17L21.46 9.17Q21.45 9.39 20.96 9.95L20.96 9.95L20.96 9.95Q20.47 10.51 19.81 10.98L19.81 10.98L19.81 10.98Q18.91 12.70 17.71 13.79L17.71 13.79L17.71 13.79Q16.51 14.88 15.32 14.88L15.32 14.88L15.32 14.88Q14.13 14.88 13.50 13.97L13.50 13.97L13.50 13.97Q12.87 13.06 12.87 11.68L12.87 11.68L12.87 11.68Q12.87 10.29 13.32 8.89L13.32 8.89L13.32 8.89Q13.78 7.49 14.50 6.35L14.50 6.35L14.50 6.35Q15.23 5.21 16.11 4.29L16.11 4.29L16.11 4.29Q16.98 3.37 17.88 2.87L17.88 2.87L17.88 2.87Q18.77 2.37 19.50 2.37L19.50 2.37ZM25.82 11.72L25.82 11.72Q24.85 11.72 24.26 10.95L24.26 10.95L24.26 10.95Q23.67 10.19 23.67 9.29L23.67 9.29L23.67 9.29Q23.67 8.39 24.13 7.26L24.13 7.26L24.13 7.26Q24.58 6.13 25.45 5.21L25.45 5.21L25.45 5.21Q26.32 4.30 27.31 4.14L27.31 4.14L27.31 4.14Q27.30 4.13 27.30 4.07L27.30 4.07L27.30 4.07Q27.30 3.72 27.14 3.59L27.14 3.59L27.14 3.59Q26.98 3.46 26.59 3.46L26.59 3.46L26.59 3.46Q25.68 3.46 24.67 4.47L24.67 4.47L24.67 4.47Q23.66 5.49 23.00 6.94L23.00 6.94L23.00 6.94Q22.33 8.40 22.33 9.63L22.33 9.63L22.33 9.63Q22.33 10.74 22.81 11.72L22.81 11.72L22.81 11.72Q23.04 12.22 23.53 12.53L23.53 12.53L23.53 12.53Q24.02 12.84 24.70 12.84L24.70 12.84L24.70 12.84Q25.90 12.84 26.92 11.48L26.92 11.48L26.92 11.48Q26.36 11.72 25.82 11.72L25.82 11.72ZM26.77 10.44L26.77 10.44L26.77 10.44Q27.20 10.44 27.65 10.30L27.65 10.30L27.65 10.30Q28.52 8.54 28.52 7.03L28.52 7.03L28.52 7.03Q28.52 6.20 28.15 5.60L28.15 5.60L28.15 5.60Q27.78 5.00 27.08 5.00L27.08 5.00L27.08 5.00Q26.18 5.00 25.47 6.00L25.47 6.00L25.47 6.00Q24.75 7.00 24.75 8.13L24.75 8.13L24.75 8.13Q24.75 9.25 25.42 9.85L25.42 9.85L25.42 9.85Q26.08 10.44 26.77 10.44ZM27.57 2.37L27.57 2.37Q27.85 2.37 28.11 2.59L28.11 2.59L28.11 2.59Q28.36 2.81 28.36 3.10L28.36 3.10L28.36 3.10Q28.36 3.39 28.17 3.69L28.17 3.69L28.17 3.69Q27.97 3.99 27.71 4.12L27.71 4.12L27.71 4.12Q28.42 4.12 28.81 4.70L28.81 4.70L28.81 4.70Q29.20 5.28 29.20 6.08L29.20 6.08L29.20 6.08Q29.20 7.87 28.34 9.95L28.34 9.95L28.34 9.95Q28.80 9.62 29.19 9.14L29.19 9.14L29.19 9.14Q29.32 8.97 29.37 8.97L29.37 8.97L29.37 8.97Q29.41 8.97 29.47 9.04L29.47 9.04L29.47 9.04Q29.53 9.10 29.53 9.17L29.53 9.17L29.53 9.17Q29.51 9.39 29.02 9.95L29.02 9.95L29.02 9.95Q28.53 10.51 27.87 10.98L27.87 10.98L27.87 10.98Q26.98 12.70 25.77 13.79L25.77 13.79L25.77 13.79Q24.57 14.88 23.38 14.88L23.38 14.88L23.38 14.88Q22.19 14.88 21.56 13.97L21.56 13.97L21.56 13.97Q20.93 13.06 20.93 11.68L20.93 11.68L20.93 11.68Q20.93 10.29 21.38 8.89L21.38 8.89L21.38 8.89Q21.84 7.49 22.57 6.35L22.57 6.35L22.57 6.35Q23.30 5.21 24.17 4.29L24.17 4.29L24.17 4.29Q25.05 3.37 25.94 2.87L25.94 2.87L25.94 2.87Q26.84 2.37 27.57 2.37L27.57 2.37ZM30.83 5.84L30.83 5.84L30.83 5.84Q30.73 6.29 30.58 8.85L30.58 8.85L30.58 8.85Q30.42 11.41 30.42 12.69L30.42 12.69L30.42 12.69Q30.42 13.97 30.46 14.34L30.46 14.34L30.46 14.34Q30.51 14.71 30.76 14.71L30.76 14.71L30.76 14.71Q30.95 14.71 31.16 14.54L31.16 14.54L31.16 14.54Q31.37 14.36 31.37 14.20L31.37 14.20L31.37 14.20Q31.37 14.03 31.24 12.89L31.24 12.89L31.24 12.89Q31.11 11.75 31.11 10.81L31.11 10.81L31.11 10.81Q31.11 9.88 31.20 7.90L31.20 7.90L31.20 7.90Q31.29 5.91 31.36 5.57L31.36 5.57L31.36 5.57Q31.36 5.45 31.26 5.45L31.26 5.45L31.26 5.45Q31.12 5.45 31.01 5.60L31.01 5.60L31.01 5.60Q30.90 5.75 30.83 5.84ZM35.64 13.76L35.64 13.76L35.64 13.76Q35.41 14.71 34.97 14.71L34.97 14.71L34.97 14.71Q34.33 14.71 34.33 13.10L34.33 13.10L34.33 13.10Q34.33 12.66 34.41 12.15L34.41 12.15L34.41 12.15Q34.48 11.65 34.48 11.62L34.48 11.62L34.48 11.62Q34.48 11.23 34.14 10.16L34.14 10.16L34.14 10.16Q33.80 9.09 33.25 7.87L33.25 7.87L33.25 7.87Q32.70 6.66 31.89 5.74L31.89 5.74L31.89 5.74Q31.07 4.82 30.27 4.82L30.27 4.82L30.27 4.82Q29.76 4.82 29.40 5.35L29.40 5.35L29.40 5.35Q29.12 5.73 29.04 5.73L29.04 5.73L29.04 5.73Q28.90 5.73 28.73 5.31L28.73 5.31L28.73 5.31Q29.13 4.75 29.99 4.14L29.99 4.14L29.99 4.14Q30.84 3.53 31.64 3.53L31.64 3.53L31.64 3.53Q32.63 3.53 33.65 5.12L33.65 5.12L33.65 5.12Q34.66 6.71 35.25 9.02L35.25 9.02L35.25 9.02Q35.28 8.93 35.40 8.46L35.40 8.46L35.40 8.46Q35.52 7.99 35.57 7.84L35.57 7.84L35.57 7.84Q35.62 7.69 35.74 7.25L35.74 7.25L35.74 7.25Q35.87 6.82 35.97 6.54L35.97 6.54L35.97 6.54Q36.08 6.27 36.23 5.85L36.23 5.85L36.23 5.85Q36.44 5.31 37.02 4.17L37.02 4.17L37.02 4.17Q37.23 3.77 38.00 3.67L38.00 3.67L38.00 3.67Q38.16 3.67 38.16 3.79L38.16 3.79L38.16 3.79Q38.16 3.86 38.11 3.93L38.11 3.93L38.11 3.93Q37.46 4.68 36.72 6.55L36.72 6.55L36.72 6.55Q35.97 8.43 35.50 10.23L35.50 10.23L35.50 10.23Q35.76 11.68 35.76 12.47L35.76 12.47L35.76 12.47Q35.76 13.27 35.64 13.76ZM41.59 12.24L41.59 12.24L41.59 12.24Q41.20 12.24 41.02 13.68L41.02 13.68L41.02 13.68Q41.38 14.11 41.87 14.11L41.87 14.11L41.87 14.11Q42.10 14.11 42.38 13.97L42.38 13.97L42.38 13.97Q42.49 13.64 42.49 13.27L42.49 13.27L42.49 13.27Q42.49 12.91 42.20 12.57L42.20 12.57L42.20 12.57Q41.90 12.24 41.59 12.24ZM40.47 13.05L40.47 13.05L40.57 11.28L40.57 11.28Q40.57 11.20 40.52 11.20L40.52 11.20L40.52 11.20Q40.47 11.20 40.38 11.33L40.38 11.33L40.38 11.33Q40.29 11.45 40.14 11.45L40.14 11.45L40.14 11.45Q39.98 11.45 39.98 11.35L39.98 11.35L39.98 11.35Q39.98 11.26 40.11 11.11L40.11 11.11L40.11 11.11Q40.24 10.96 40.40 10.58L40.40 10.58L40.40 10.58Q40.56 10.19 40.68 9.93L40.68 9.93L40.68 9.93Q40.81 9.67 40.92 9.67L40.92 9.67L40.92 9.67Q41.08 9.67 41.16 9.81L41.16 9.81L41.16 9.81Q41.24 9.94 41.24 10.05L41.24 10.05L41.24 10.05Q41.24 10.16 41.12 10.81L41.12 10.81L41.12 10.81Q40.99 11.45 40.99 11.75L40.99 11.75L40.99 11.75Q40.99 12.05 41.06 12.05L41.06 12.05L41.06 12.05Q41.09 12.05 41.32 11.75L41.32 11.75L41.32 11.75Q41.55 11.45 41.88 11.15L41.88 11.15L41.88 11.15Q42.21 10.85 42.49 10.85L42.49 10.85L42.49 10.85Q43.53 10.85 43.53 12.04L43.53 12.04L43.53 12.04Q43.53 12.87 43.06 13.55L43.06 13.55L43.06 13.55Q43.76 13.06 44.34 12.53L44.34 12.53L44.53 12.35L44.53 12.35Q44.70 12.35 44.70 12.45L44.70 12.45L44.70 12.45Q44.70 12.68 44.11 13.24L44.11 13.24L44.11 13.24Q43.51 13.79 42.58 14.34L42.58 14.34L42.58 14.34Q41.65 14.88 40.87 15.05L40.87 15.05L40.87 15.05Q40.84 15.75 40.84 16.18L40.84 16.18L40.84 16.18Q40.84 16.62 40.89 16.96L40.89 16.96L40.89 16.96Q40.94 17.30 40.94 17.46L40.94 17.46L40.94 17.46Q40.94 17.63 40.81 17.73L40.81 17.73L40.81 17.73Q40.68 17.84 40.54 17.84L40.54 17.84L40.54 17.84Q40.36 17.84 40.35 17.60L40.35 17.60L40.35 17.60Q40.33 17.36 40.33 16.44L40.33 16.44L40.33 16.44Q40.33 15.51 40.35 15.12L40.35 15.12L40.35 15.12Q39.97 15.12 39.75 14.78L39.75 14.78L39.75 14.78Q39.52 14.43 39.52 14.13L39.52 14.13L39.52 14.13Q39.52 13.82 39.80 13.44L39.80 13.44L39.80 13.44Q40.07 13.06 40.47 13.05ZM44.39 9.77L44.39 9.77L44.39 9.77Q44.17 9.53 44.17 9.18L44.17 9.18L44.17 9.18Q44.17 8.83 44.39 8.60L44.39 8.60L44.39 8.60Q44.60 8.36 44.93 8.36L44.93 8.36L44.93 8.36Q45.25 8.36 45.47 8.60L45.47 8.60L45.47 8.60Q45.68 8.83 45.68 9.18L45.68 9.18L45.68 9.18Q45.68 9.53 45.47 9.77L45.47 9.77L45.47 9.77Q45.25 10.01 44.93 10.01L44.93 10.01L44.93 10.01Q44.60 10.01 44.39 9.77ZM47.29 12.82L47.29 12.82L47.29 12.82Q47.43 12.71 47.54 12.71L47.54 12.71L47.54 12.71Q47.74 12.71 47.74 12.96L47.74 12.96L47.74 12.96Q47.74 13.31 46.87 14.01L46.87 14.01L46.87 14.01Q46.00 14.70 45.37 14.70L45.37 14.70L45.37 14.70Q44.74 14.70 44.39 14.25L44.39 14.25L44.39 14.25Q44.04 13.80 44.04 13.10L44.04 13.10L44.04 13.10Q44.04 12.39 44.28 11.73L44.28 11.73L44.28 11.73Q44.52 11.07 44.76 11.07L44.76 11.07L44.76 11.07Q44.87 11.09 44.87 11.42L44.87 11.42L44.87 11.42Q44.87 11.75 44.97 12.14L44.97 12.14L44.97 12.14Q45.07 12.53 45.40 12.89L45.40 12.89L45.40 12.89Q45.72 13.24 46.25 13.24L46.25 13.24L46.25 13.24Q46.77 13.24 47.29 12.82ZM48.45 12.52L48.45 12.52Q48.69 12.43 48.94 11.98L48.94 11.98L48.94 11.98Q49.18 11.52 49.18 11.23L49.18 11.23L49.18 11.23Q49.18 10.93 48.96 10.92L48.96 10.92L48.96 10.92Q48.62 10.92 48.48 11.22L48.48 11.22L48.48 11.22Q48.34 11.52 48.34 11.88L48.34 11.88L48.34 11.88Q48.34 12.24 48.45 12.52L48.45 12.52ZM49.66 13.43L49.66 13.43L49.66 13.43Q50.05 13.43 50.31 13.25L50.31 13.25L50.31 13.25Q50.57 13.08 50.80 12.80L50.80 12.80L50.80 12.80Q51.03 12.52 51.16 12.52L51.16 12.52L51.16 12.52Q51.30 12.52 51.30 12.64L51.30 12.64L51.30 12.64Q51.30 12.73 51.24 12.84L51.24 12.84L51.24 12.84Q50.78 13.58 50.09 14.15L50.09 14.15L50.09 14.15Q49.41 14.71 48.64 14.71L48.64 14.71L48.64 14.71Q47.87 14.71 47.52 14.34L47.52 14.34L47.52 14.34Q47.18 13.97 47.18 13.36L47.18 13.36L47.18 13.36Q47.18 12.29 47.98 11.18L47.98 11.18L47.98 11.18Q48.78 10.07 49.63 10.07L49.63 10.07L49.63 10.07Q50.08 10.07 50.08 10.43L50.08 10.43L50.08 10.43Q50.08 10.92 49.77 11.45L49.77 11.45L49.77 11.45Q49.46 11.97 48.64 12.87L48.64 12.87L48.64 12.87Q49.01 13.43 49.66 13.43Z"></path></g><defs data-v-fde0c5aa=""><linearGradient data-v-fde0c5aa="" gradientTransform="rotate(25)" id="fb3a839c-d2ec-42aa-afc7-5b136dad10e0" x1="0%" y1="0%" x2="100%" y2="0%"><stop data-v-fde0c5aa="" offset="0%" stop-color="#5A5A2D" stop-opacity="1"></stop><stop data-v-fde0c5aa="" offset="100%" stop-color="#0DE30D" stop-opacity="1"></stop></linearGradient></defs><g data-v-fde0c5aa="" id="69a25421-b2b4-44c1-8fed-88ece54f24ac" stroke="none" fill="url(#fb3a839c-d2ec-42aa-afc7-5b136dad10e0)" transform="matrix(0.7434952722062105,0,0,0.7434952722062105,39.99950433640395,112.82504335018842)"><path d="M18.65 39.633c.996 0 1.971.085 2.922.241a7.693 7.693 0 0 1 7.333-5.367c.963 0 1.88.184 2.729.507.984-6.101 6.272-10.762 12.652-10.762 5.277 0 9.809 3.193 11.771 7.751.053-.154.094-.31.148-.464C60.324 19.512 68.582 10.08 78.836 4.268a51.575 51.575 0 0 0-3.949-1.557C48.77-6.235 20.343 7.684 11.396 33.802a50.174 50.174 0 0 0-2.09 8.478 17.827 17.827 0 0 1 9.344-2.647zM56.695 65.269H11.084c4.665 14.506 15.877 26.705 31.401 32.023 14.089 4.827 28.845 2.989 40.856-3.819-12.691-5.577-22.044-15.95-26.646-28.204zM88 21.336l-6.25 8.332L88 38l-8.332-6.249L71.336 38l6.25-8.332-6.25-8.332 8.332 6.249z"></path><path d="M56.205 72.318c6.088-2.05 10.475-8.603 10.475-15.381 0-6.741-4.338-12.464-10.373-14.544-.844-6.261-6.205-11.092-12.698-11.092-6.379 0-11.668 4.661-12.651 10.762a7.655 7.655 0 0 0-2.729-.507 7.692 7.692 0 0 0-7.333 5.367 17.916 17.916 0 0 0-2.921-.242C8.064 46.681.03 54.716.03 64.626c0 .64-.066-.622 0 0-.102 6.438 3.984 7.691 7.975 7.691"></path></g><defs data-v-fde0c5aa=""><!----></defs><g data-v-fde0c5aa="" id="a7504e6e-292c-44a8-93c5-0080bfa8c6e6" fill="#000000" transform="matrix(0.4012041587703421,0,0,0.4012041587703421,118.14624754735756,169.81773752947478)"><path d="M10.43 4.44C10.61 4.42 10.71 4.34 10.71 4.19L10.71 3.92L9.53 3.92L8.81 3.92L7.63 3.92L7.63 4.19C7.63 4.34 7.73 4.42 7.91 4.44L8.04 4.44C8.11 4.44 8.22 4.45 8.36 4.45C8.50 4.45 8.64 4.47 8.81 4.47L8.81 8.53L2.60 8.53L2.60 4.47C2.77 4.47 2.93 4.45 3.07 4.45C3.21 4.45 3.30 4.44 3.37 4.44L3.51 4.44C3.70 4.42 3.78 4.34 3.78 4.19L3.78 3.92L2.60 3.92L1.89 3.92L0.70 3.92L0.70 4.19C0.70 4.34 0.80 4.42 0.98 4.44L1.12 4.44C1.19 4.44 1.29 4.45 1.43 4.45C1.57 4.45 1.72 4.47 1.89 4.47L1.89 13.26C1.72 13.26 1.57 13.27 1.43 13.27C1.29 13.27 1.19 13.29 1.12 13.29L0.98 13.29C0.80 13.30 0.70 13.38 0.70 13.54L0.70 13.82L1.89 13.82L2.60 13.82L3.78 13.82L3.78 13.54C3.78 13.38 3.70 13.30 3.51 13.29L3.37 13.29C3.30 13.29 3.21 13.27 3.07 13.27C2.93 13.27 2.77 13.26 2.60 13.26L2.60 9.07L8.81 9.07L8.81 13.26C8.64 13.26 8.50 13.27 8.36 13.27C8.22 13.27 8.11 13.29 8.04 13.29L7.91 13.29C7.73 13.30 7.63 13.38 7.63 13.54L7.63 13.82L8.81 13.82L9.53 13.82L10.71 13.82L10.71 13.54C10.71 13.38 10.61 13.30 10.43 13.29L10.30 13.29C10.23 13.29 10.12 13.27 9.98 13.27C9.84 13.27 9.70 13.26 9.53 13.26L9.53 4.47C9.70 4.47 9.84 4.45 9.98 4.45C10.12 4.45 10.23 4.44 10.30 4.44ZM28.35 13.22L27.89 13.17L24.11 3.91L23.39 3.91L19.60 13.17L19.15 13.22C18.97 13.23 18.89 13.33 18.89 13.50L18.89 13.82L19.33 13.82L19.63 13.82L19.88 13.82L19.98 13.82L21.29 13.82L21.29 13.50C21.29 13.31 21.18 13.23 20.97 13.22C20.96 13.22 20.93 13.20 20.89 13.20C20.85 13.20 20.79 13.19 20.69 13.19C20.59 13.19 20.47 13.19 20.33 13.17L21.31 10.75L21.38 10.57L26.11 10.57L26.18 10.75L27.16 13.17C27.02 13.19 26.91 13.19 26.81 13.19C26.71 13.19 26.64 13.20 26.60 13.20C26.56 13.20 26.53 13.22 26.52 13.22C26.31 13.23 26.19 13.31 26.19 13.50L26.19 13.82L27.51 13.82L27.61 13.82L27.87 13.82L28.15 13.82L28.62 13.82L28.62 13.50C28.62 13.33 28.53 13.23 28.35 13.22ZM23.55 5.22C23.58 5.14 23.62 5.04 23.65 4.94C23.67 4.84 23.72 4.75 23.74 4.63C23.77 4.75 23.81 4.84 23.84 4.94C23.87 5.04 23.91 5.12 23.94 5.21L25.90 10.04L21.60 10.04ZM43.08 4.68C42.49 4.17 41.61 3.92 40.45 3.92L38.04 3.92L36.85 3.92L36.85 4.19C36.85 4.34 36.95 4.42 37.13 4.44L37.27 4.44C37.34 4.44 37.44 4.45 37.58 4.45C37.72 4.45 37.87 4.47 38.04 4.47L38.04 13.26C37.87 13.26 37.72 13.27 37.58 13.27C37.44 13.27 37.34 13.29 37.27 13.29L37.13 13.29C36.95 13.30 36.85 13.38 36.85 13.54L36.85 13.82L38.04 13.82L38.75 13.82L39.93 13.82L39.93 13.54C39.93 13.38 39.83 13.30 39.65 13.29L39.52 13.29C39.45 13.29 39.34 13.27 39.20 13.27C39.06 13.27 38.92 13.26 38.75 13.26L38.75 9.83L40.45 9.83C40.99 9.83 41.48 9.74 41.92 9.60C42.35 9.45 42.71 9.25 43.02 8.99C43.33 8.72 43.57 8.41 43.72 8.05C43.89 7.69 43.96 7.29 43.96 6.86C43.96 5.92 43.67 5.18 43.08 4.68ZM43.05 7.81C42.92 8.11 42.74 8.36 42.50 8.57C42.27 8.78 41.97 8.95 41.62 9.07C41.27 9.20 40.88 9.25 40.45 9.25L38.75 9.25L38.75 4.48L40.45 4.48C41.37 4.48 42.07 4.69 42.55 5.10C43.01 5.50 43.25 6.09 43.25 6.85C43.25 7.20 43.18 7.52 43.05 7.81ZM58.38 4.68C57.79 4.17 56.91 3.92 55.75 3.92L53.34 3.92L52.15 3.92L52.15 4.19C52.15 4.34 52.25 4.42 52.43 4.44L52.57 4.44C52.64 4.44 52.74 4.45 52.88 4.45C53.02 4.45 53.17 4.47 53.34 4.47L53.34 13.26C53.17 13.26 53.02 13.27 52.88 13.27C52.74 13.27 52.64 13.29 52.57 13.29L52.43 13.29C52.25 13.30 52.15 13.38 52.15 13.54L52.15 13.82L53.34 13.82L54.05 13.82L55.23 13.82L55.23 13.54C55.23 13.38 55.13 13.30 54.95 13.29L54.82 13.29C54.75 13.29 54.64 13.27 54.50 13.27C54.36 13.27 54.22 13.26 54.05 13.26L54.05 9.83L55.75 9.83C56.29 9.83 56.78 9.74 57.22 9.60C57.65 9.45 58.02 9.25 58.32 8.99C58.63 8.72 58.87 8.41 59.02 8.05C59.19 7.69 59.26 7.29 59.26 6.86C59.26 5.92 58.97 5.18 58.38 4.68ZM58.35 7.81C58.23 8.11 58.04 8.36 57.81 8.57C57.57 8.78 57.27 8.95 56.92 9.07C56.57 9.20 56.18 9.25 55.75 9.25L54.05 9.25L54.05 4.48L55.75 4.48C56.67 4.48 57.37 4.69 57.85 5.10C58.31 5.50 58.55 6.09 58.55 6.85C58.55 7.20 58.48 7.52 58.35 7.81ZM70.27 4.44C70.45 4.42 70.53 4.34 70.53 4.19L70.53 3.91L69.36 3.91L68.64 3.91L67.45 3.91L67.45 4.19C67.45 4.34 67.55 4.42 67.73 4.44L67.87 4.44C67.94 4.44 68.04 4.45 68.18 4.45C68.32 4.45 68.47 4.47 68.64 4.47L68.64 13.26C68.47 13.26 68.32 13.27 68.18 13.27C68.04 13.27 67.94 13.29 67.87 13.29L67.73 13.29C67.55 13.30 67.45 13.38 67.45 13.54L67.45 13.82L68.64 13.82L69.36 13.82L70.53 13.82L70.53 13.54C70.53 13.38 70.45 13.30 70.27 13.29L70.13 13.29C70.06 13.29 69.96 13.27 69.82 13.27C69.68 13.27 69.52 13.26 69.36 13.26L69.36 4.47C69.52 4.47 69.68 4.45 69.82 4.45C69.96 4.45 70.06 4.44 70.13 4.44ZM87.71 3.92L87.08 3.92L85.86 3.92L85.86 4.19C85.86 4.34 85.96 4.42 86.14 4.44L86.28 4.44C86.35 4.44 86.46 4.45 86.60 4.45C86.74 4.45 86.91 4.47 87.08 4.47L87.08 12.22C87.08 12.35 87.08 12.49 87.09 12.63L80.68 4.05C80.64 3.99 80.61 3.95 80.57 3.93C80.53 3.92 80.49 3.91 80.42 3.91L80.07 3.91L78.88 3.91L78.88 4.19C78.88 4.34 78.97 4.42 79.16 4.44L79.30 4.44C79.37 4.44 79.46 4.45 79.60 4.45C79.74 4.45 79.90 4.47 80.07 4.47L80.07 13.26C79.90 13.26 79.74 13.27 79.60 13.27C79.46 13.27 79.37 13.29 79.30 13.29L79.16 13.29C78.97 13.30 78.88 13.38 78.88 13.54L78.88 13.82L80.07 13.82L80.68 13.82L81.90 13.82L81.90 13.54C81.90 13.38 81.80 13.30 81.62 13.29L81.48 13.29C81.41 13.29 81.28 13.27 81.14 13.27C81.00 13.27 80.85 13.26 80.68 13.26L80.68 5.49C80.68 5.36 80.68 5.22 80.67 5.08L87.11 13.68C87.18 13.78 87.25 13.82 87.36 13.82L87.71 13.82L87.71 4.47C87.88 4.47 88.02 4.45 88.16 4.45C88.30 4.45 88.41 4.44 88.48 4.44L88.61 4.44C88.79 4.42 88.89 4.34 88.89 4.19L88.89 3.92ZM98.11 3.92L96.92 3.92L96.92 4.19C96.92 4.34 97.02 4.42 97.20 4.44L97.34 4.44C97.41 4.44 97.51 4.45 97.65 4.45C97.79 4.45 97.94 4.47 98.11 4.47L98.11 13.26C97.94 13.26 97.79 13.27 97.65 13.27C97.51 13.27 97.41 13.29 97.34 13.29L97.20 13.29C97.02 13.30 96.94 13.38 96.94 13.54L96.94 13.82L98.11 13.82L104.05 13.82L104.05 13.22L104.05 11.76L103.70 11.76C103.50 11.76 103.42 11.89 103.40 12.11C103.40 12.14 103.39 12.19 103.39 12.29C103.39 12.39 103.39 12.53 103.38 12.74C103.36 12.95 103.35 13.09 103.35 13.22L98.83 13.22L98.83 9.09L102.77 9.09L102.77 8.51L98.83 8.51L98.83 4.51L103.35 4.51C103.38 5.12 103.40 5.50 103.40 5.63C103.42 5.85 103.50 5.96 103.70 5.96L104.05 5.96L104.05 4.51L104.05 3.92ZM118.36 9.91C118.22 9.65 118.02 9.39 117.78 9.21C117.54 9.03 117.29 8.88 117.00 8.75C116.70 8.62 116.38 8.51 116.07 8.41C115.77 8.32 115.46 8.20 115.16 8.11C114.87 7.99 114.60 7.87 114.37 7.71C114.13 7.56 113.95 7.38 113.81 7.15C113.67 6.93 113.58 6.65 113.58 6.31C113.58 6.06 113.64 5.82 113.74 5.59C113.83 5.35 113.97 5.15 114.16 4.97C114.34 4.79 114.56 4.65 114.84 4.55C115.12 4.45 115.43 4.40 115.79 4.40C116.47 4.40 117.08 4.51 117.64 4.75C117.68 5.54 117.71 5.99 117.71 6.06C117.73 6.29 117.81 6.41 118.01 6.41L118.34 6.41L118.34 4.38C117.46 4.00 116.62 3.81 115.79 3.81C115.33 3.81 114.93 3.88 114.56 4.02C114.20 4.16 113.90 4.34 113.67 4.58C113.43 4.82 113.23 5.08 113.11 5.39C112.98 5.70 112.92 6.02 112.92 6.36C112.92 6.78 112.99 7.14 113.13 7.42C113.27 7.70 113.47 7.92 113.71 8.12C113.95 8.32 114.20 8.46 114.49 8.58C114.79 8.71 115.11 8.82 115.42 8.92C115.72 9.02 116.02 9.11 116.33 9.21C116.62 9.31 116.89 9.45 117.12 9.60C117.36 9.76 117.54 9.94 117.68 10.16C117.82 10.39 117.89 10.68 117.89 11.03C117.89 11.35 117.84 11.66 117.73 11.94C117.61 12.22 117.46 12.46 117.25 12.67C117.04 12.88 116.77 13.05 116.47 13.16C116.16 13.29 115.81 13.33 115.42 13.33C114.63 13.33 113.97 13.20 113.44 12.95C113.43 12.75 113.43 12.54 113.41 12.32C113.40 12.10 113.40 11.91 113.39 11.76C113.37 11.61 113.37 11.52 113.37 11.51C113.36 11.28 113.26 11.17 113.06 11.17L112.73 11.17L112.73 13.02L112.73 13.20L112.73 13.38C113.58 13.75 114.46 13.93 115.39 13.93C115.89 13.93 116.34 13.85 116.73 13.69C117.12 13.54 117.46 13.31 117.73 13.05C117.99 12.78 118.22 12.46 118.36 12.10C118.50 11.73 118.57 11.34 118.57 10.92C118.57 10.51 118.50 10.18 118.36 9.91ZM132.55 9.91C132.41 9.65 132.22 9.39 131.98 9.21C131.74 9.03 131.49 8.88 131.19 8.75C130.90 8.62 130.58 8.51 130.27 8.41C129.96 8.32 129.65 8.20 129.36 8.11C129.07 7.99 128.80 7.87 128.56 7.71C128.32 7.56 128.14 7.38 128.00 7.15C127.86 6.93 127.78 6.65 127.78 6.31C127.78 6.06 127.83 5.82 127.93 5.59C128.03 5.35 128.17 5.15 128.35 4.97C128.53 4.79 128.76 4.65 129.04 4.55C129.32 4.45 129.63 4.40 129.99 4.40C130.66 4.40 131.28 4.51 131.84 4.75C131.88 5.54 131.91 5.99 131.91 6.06C131.92 6.29 132.01 6.41 132.20 6.41L132.54 6.41L132.54 4.38C131.66 4.00 130.82 3.81 129.99 3.81C129.53 3.81 129.12 3.88 128.76 4.02C128.39 4.16 128.10 4.34 127.86 4.58C127.62 4.82 127.43 5.08 127.30 5.39C127.18 5.70 127.12 6.02 127.12 6.36C127.12 6.78 127.19 7.14 127.33 7.42C127.47 7.70 127.67 7.92 127.90 8.12C128.14 8.32 128.39 8.46 128.69 8.58C128.98 8.71 129.30 8.82 129.61 8.92C129.92 9.02 130.21 9.11 130.52 9.21C130.82 9.31 131.08 9.45 131.32 9.60C131.56 9.76 131.74 9.94 131.88 10.16C132.02 10.39 132.09 10.68 132.09 11.03C132.09 11.35 132.03 11.66 131.92 11.94C131.81 12.22 131.66 12.46 131.45 12.67C131.24 12.88 130.97 13.05 130.66 13.16C130.35 13.29 130.00 13.33 129.61 13.33C128.83 13.33 128.17 13.20 127.64 12.95C127.62 12.75 127.62 12.54 127.61 12.32C127.60 12.10 127.60 11.91 127.58 11.76C127.57 11.61 127.57 11.52 127.57 11.51C127.55 11.28 127.46 11.17 127.26 11.17L126.92 11.17L126.92 13.02L126.92 13.20L126.92 13.38C127.78 13.75 128.66 13.93 129.58 13.93C130.09 13.93 130.54 13.85 130.93 13.69C131.32 13.54 131.66 13.31 131.92 13.05C132.19 12.78 132.41 12.46 132.55 12.10C132.69 11.73 132.76 11.34 132.76 10.92C132.76 10.51 132.69 10.18 132.55 9.91ZM154.21 4.44C154.39 4.42 154.48 4.34 154.48 4.19L154.48 3.91L153.30 3.91L152.59 3.91L151.40 3.91L151.40 4.19C151.40 4.34 151.49 4.42 151.68 4.44L151.82 4.44C151.89 4.44 151.98 4.45 152.12 4.45C152.26 4.45 152.42 4.47 152.59 4.47L152.59 13.26C152.42 13.26 152.26 13.27 152.12 13.27C151.98 13.27 151.89 13.29 151.82 13.29L151.68 13.29C151.49 13.30 151.40 13.38 151.40 13.54L151.40 13.82L152.59 13.82L153.30 13.82L154.48 13.82L154.48 13.54C154.48 13.38 154.39 13.30 154.21 13.29L154.07 13.29C154 13.29 153.90 13.27 153.76 13.27C153.62 13.27 153.47 13.26 153.30 13.26L153.30 4.47C153.47 4.47 153.62 4.45 153.76 4.45C153.90 4.45 154 4.44 154.07 4.44ZM171.65 3.92L171.02 3.92L169.81 3.92L169.81 4.19C169.81 4.34 169.90 4.42 170.09 4.44L170.23 4.44C170.30 4.44 170.41 4.45 170.55 4.45C170.69 4.45 170.86 4.47 171.02 4.47L171.02 12.22C171.02 12.35 171.02 12.49 171.04 12.63L164.63 4.05C164.58 3.99 164.56 3.95 164.51 3.93C164.47 3.92 164.43 3.91 164.36 3.91L164.01 3.91L162.82 3.91L162.82 4.19C162.82 4.34 162.92 4.42 163.10 4.44L163.24 4.44C163.31 4.44 163.41 4.45 163.55 4.45C163.69 4.45 163.84 4.47 164.01 4.47L164.01 13.26C163.84 13.26 163.69 13.27 163.55 13.27C163.41 13.27 163.31 13.29 163.24 13.29L163.10 13.29C162.92 13.30 162.82 13.38 162.82 13.54L162.82 13.82L164.01 13.82L164.63 13.82L165.84 13.82L165.84 13.54C165.84 13.38 165.75 13.30 165.56 13.29L165.42 13.29C165.35 13.29 165.23 13.27 165.09 13.27C164.95 13.27 164.79 13.26 164.63 13.26L164.63 5.49C164.63 5.36 164.63 5.22 164.61 5.08L171.05 13.68C171.12 13.78 171.19 13.82 171.30 13.82L171.65 13.82L171.65 4.47C171.82 4.47 171.96 4.45 172.10 4.45C172.24 4.45 172.35 4.44 172.42 4.44L172.55 4.44C172.73 4.42 172.83 4.34 172.83 4.19L172.83 3.92ZM192.43 3.92L191.24 3.92L191.24 4.19C191.24 4.34 191.34 4.42 191.52 4.44L191.66 4.44C191.73 4.44 191.83 4.45 191.97 4.45C192.11 4.45 192.26 4.47 192.43 4.47L192.43 13.26C192.26 13.26 192.11 13.27 191.97 13.27C191.83 13.27 191.73 13.29 191.66 13.29L191.52 13.29C191.34 13.30 191.25 13.38 191.25 13.54L191.25 13.82L192.43 13.82L198.37 13.82L198.37 13.22L198.37 11.76L198.02 11.76C197.82 11.76 197.74 11.89 197.72 12.11C197.72 12.14 197.71 12.19 197.71 12.29C197.71 12.39 197.71 12.53 197.69 12.74C197.68 12.95 197.67 13.09 197.67 13.22L193.14 13.22L193.14 9.09L197.09 9.09L197.09 8.51L193.14 8.51L193.14 4.51L197.67 4.51C197.69 5.12 197.72 5.50 197.72 5.63C197.74 5.85 197.82 5.96 198.02 5.96L198.37 5.96L198.37 4.51L198.37 3.92ZM215.85 3.92L215.29 3.92L215.26 3.92L213.79 3.92L213.79 4.19C213.79 4.34 213.88 4.42 214.06 4.44L214.19 4.44C214.24 4.44 214.33 4.45 214.45 4.45C214.58 4.45 214.72 4.47 214.87 4.47L211.67 12.32C211.58 12.53 211.51 12.75 211.46 13.01C211.40 12.77 211.33 12.53 211.25 12.32L208.01 4.47C208.17 4.47 208.32 4.45 208.45 4.45C208.57 4.45 208.66 4.44 208.71 4.44L208.82 4.44C209.01 4.42 209.10 4.34 209.10 4.19L209.10 3.92L207.61 3.92L207.05 3.92L206.44 3.92L206.44 4.19C206.44 4.34 206.54 4.42 206.72 4.44L206.82 4.44C206.86 4.44 206.93 4.45 207.00 4.45C207.07 4.45 207.17 4.47 207.27 4.47L211.13 13.82L211.76 13.82L215.63 4.47C215.73 4.47 215.82 4.45 215.89 4.45C215.96 4.45 216.03 4.44 216.08 4.44L216.16 4.44C216.34 4.42 216.44 4.34 216.44 4.19L216.44 3.92ZM225.68 3.92L224.49 3.92L224.49 4.19C224.49 4.34 224.59 4.42 224.77 4.44L224.91 4.44C224.98 4.44 225.08 4.45 225.22 4.45C225.36 4.45 225.51 4.47 225.68 4.47L225.68 13.26C225.51 13.26 225.36 13.27 225.22 13.27C225.08 13.27 224.98 13.29 224.91 13.29L224.77 13.29C224.59 13.30 224.50 13.38 224.50 13.54L224.50 13.82L225.68 13.82L231.62 13.82L231.62 13.22L231.62 11.76L231.27 11.76C231.07 11.76 230.99 11.89 230.97 12.11C230.97 12.14 230.96 12.19 230.96 12.29C230.96 12.39 230.96 12.53 230.94 12.74C230.93 12.95 230.92 13.09 230.92 13.22L226.39 13.22L226.39 9.09L230.34 9.09L230.34 8.51L226.39 8.51L226.39 4.51L230.92 4.51C230.94 5.12 230.97 5.50 230.97 5.63C230.99 5.85 231.07 5.96 231.27 5.96L231.62 5.96L231.62 4.51L231.62 3.92ZM248.19 13.29L248.09 13.29L247.91 13.29C247.83 13.29 247.74 13.27 247.66 13.27L244.69 9.53C244.61 9.42 244.50 9.32 244.38 9.25C244.82 9.21 245.21 9.11 245.56 8.96C245.91 8.81 246.19 8.61 246.44 8.37C246.68 8.13 246.88 7.85 247.00 7.55C247.13 7.24 247.20 6.89 247.20 6.51C247.20 5.66 246.92 5.03 246.36 4.58C245.80 4.14 244.94 3.92 243.80 3.92L241.39 3.92L240.21 3.92L240.21 4.19C240.21 4.34 240.30 4.42 240.48 4.44L240.62 4.44C240.69 4.44 240.79 4.45 240.93 4.45C241.07 4.45 241.22 4.47 241.39 4.47L241.39 13.26C241.22 13.26 241.07 13.27 240.93 13.27C240.79 13.27 240.69 13.29 240.62 13.29L240.48 13.29C240.30 13.30 240.20 13.38 240.20 13.54L240.20 13.82L241.39 13.82L242.10 13.82L243.28 13.82L243.28 13.54C243.28 13.38 243.18 13.30 243.00 13.29L242.86 13.29C242.79 13.29 242.69 13.27 242.55 13.27C242.41 13.27 242.27 13.26 242.10 13.26L242.10 9.34L243.28 9.34C243.47 9.34 243.61 9.35 243.70 9.39C243.78 9.44 243.87 9.52 243.95 9.62L247.13 13.64C247.18 13.71 247.23 13.75 247.28 13.78C247.34 13.80 247.41 13.82 247.48 13.82L247.55 13.82L248.09 13.82L248.46 13.82L248.46 13.54C248.46 13.38 248.37 13.30 248.19 13.29ZM243.70 8.81L242.10 8.81L242.10 4.48L243.80 4.48C244.68 4.48 245.35 4.66 245.81 5.00C246.27 5.33 246.50 5.87 246.50 6.57C246.50 6.92 246.44 7.21 246.32 7.49C246.19 7.77 245.99 7.99 245.76 8.19C245.52 8.39 245.22 8.55 244.87 8.65C244.52 8.75 244.13 8.81 243.70 8.81ZM264.80 3.92L264.73 3.92L264.17 3.92L264.05 3.92L262.65 3.92L262.65 4.19C262.65 4.34 262.75 4.42 262.93 4.44L263.05 4.44C263.10 4.44 263.17 4.45 263.28 4.45C263.40 4.45 263.52 4.47 263.66 4.47L261.07 8.64C261.00 8.75 260.95 8.85 260.90 8.95C260.86 9.04 260.82 9.16 260.78 9.25C260.74 9.16 260.69 9.04 260.65 8.95C260.61 8.85 260.55 8.75 260.48 8.64L257.88 4.47C258.02 4.47 258.15 4.45 258.26 4.45C258.37 4.45 258.45 4.44 258.51 4.44L258.61 4.44C258.79 4.42 258.89 4.34 258.89 4.19L258.89 3.92L257.49 3.92L257.38 3.92L256.82 3.92L256.75 3.92L256.30 3.92L256.30 4.19C256.30 4.34 256.40 4.42 256.58 4.44C256.82 4.45 257.00 4.47 257.10 4.47L260.41 9.73L260.41 13.26C260.25 13.26 260.09 13.27 259.95 13.27C259.81 13.27 259.71 13.29 259.64 13.29L259.52 13.29C259.34 13.30 259.24 13.38 259.24 13.54L259.24 13.82L260.41 13.82L261.13 13.82L262.30 13.82L262.30 13.54C262.30 13.38 262.22 13.30 262.04 13.29L261.90 13.29C261.83 13.29 261.73 13.27 261.59 13.27C261.45 13.27 261.30 13.26 261.13 13.26L261.13 9.73L264.45 4.47C264.56 4.47 264.73 4.45 264.96 4.44C265.15 4.42 265.24 4.34 265.24 4.19L265.24 3.92ZM290.77 9.52C290.35 9.11 289.74 8.86 288.96 8.75C289.28 8.67 289.56 8.55 289.81 8.40C290.07 8.25 290.29 8.08 290.46 7.87C290.63 7.66 290.77 7.43 290.85 7.20C290.93 6.96 290.99 6.71 290.99 6.44C290.99 6.05 290.91 5.68 290.78 5.38C290.65 5.07 290.44 4.80 290.18 4.58C289.91 4.37 289.58 4.20 289.16 4.09C288.74 3.98 288.25 3.92 287.69 3.92L284.84 3.92L283.65 3.92L283.65 4.19C283.65 4.34 283.75 4.42 283.93 4.44L284.07 4.44C284.14 4.44 284.24 4.45 284.38 4.45C284.52 4.45 284.68 4.47 284.84 4.47L284.84 13.26C284.68 13.26 284.52 13.27 284.38 13.27C284.24 13.27 284.14 13.29 284.07 13.29L283.93 13.29C283.75 13.30 283.67 13.38 283.67 13.54L283.67 13.82L284.84 13.82L288.05 13.82C288.58 13.82 289.04 13.76 289.46 13.64C289.88 13.51 290.23 13.34 290.51 13.10C290.79 12.87 291.02 12.59 291.17 12.25C291.33 11.91 291.40 11.54 291.40 11.12C291.40 10.46 291.19 9.93 290.77 9.52ZM285.56 4.48L287.69 4.48C288.57 4.48 289.23 4.66 289.65 5.00C290.07 5.35 290.28 5.84 290.28 6.51C290.28 6.76 290.23 7.03 290.14 7.27C290.04 7.50 289.88 7.71 289.67 7.91C289.46 8.11 289.20 8.26 288.88 8.37C288.55 8.48 288.16 8.55 287.70 8.55L285.56 8.55ZM290.01 12.68C289.56 13.06 288.90 13.24 288.04 13.24L285.56 13.24L285.56 9.07L288.05 9.07C288.47 9.07 288.83 9.11 289.16 9.21C289.48 9.31 289.76 9.45 289.98 9.62C290.21 9.80 290.37 10.00 290.50 10.25C290.61 10.50 290.68 10.79 290.68 11.10C290.68 11.79 290.46 12.31 290.01 12.68ZM307.72 3.92L307.65 3.92L307.09 3.92L306.98 3.92L305.58 3.92L305.58 4.19C305.58 4.34 305.68 4.42 305.86 4.44L305.97 4.44C306.03 4.44 306.10 4.45 306.21 4.45C306.32 4.45 306.45 4.47 306.59 4.47L304.00 8.64C303.93 8.75 303.87 8.85 303.83 8.95C303.79 9.04 303.74 9.16 303.70 9.25C303.66 9.16 303.62 9.04 303.58 8.95C303.53 8.85 303.48 8.75 303.41 8.64L300.80 4.47C300.94 4.47 301.07 4.45 301.18 4.45C301.29 4.45 301.38 4.44 301.43 4.44L301.53 4.44C301.71 4.42 301.81 4.34 301.81 4.19L301.81 3.92L300.41 3.92L300.30 3.92L299.74 3.92L299.67 3.92L299.22 3.92L299.22 4.19C299.22 4.34 299.32 4.42 299.50 4.44C299.74 4.45 299.92 4.47 300.02 4.47L303.34 9.73L303.34 13.26C303.17 13.26 303.02 13.27 302.88 13.27C302.74 13.27 302.64 13.29 302.57 13.29L302.44 13.29C302.26 13.30 302.16 13.38 302.16 13.54L302.16 13.82L303.34 13.82L304.05 13.82L305.23 13.82L305.23 13.54C305.23 13.38 305.14 13.30 304.96 13.29L304.82 13.29C304.75 13.29 304.65 13.27 304.51 13.27C304.37 13.27 304.22 13.26 304.05 13.26L304.05 9.73L307.37 4.47C307.48 4.47 307.65 4.45 307.89 4.44C308.07 4.42 308.17 4.34 308.17 4.19L308.17 3.92ZM323.72 3.92L323.53 3.92L316.23 3.92L316.02 3.92L315.92 3.92L315.92 5.96L316.27 5.96C316.47 5.96 316.55 5.85 316.57 5.63C316.57 5.53 316.60 5.17 316.62 4.52L319.52 4.52L319.52 13.26C319.35 13.26 319.21 13.27 319.07 13.27C318.93 13.27 318.82 13.29 318.75 13.29L318.63 13.29C318.44 13.30 318.35 13.38 318.35 13.54L318.35 13.82L319.52 13.82L320.24 13.82L321.43 13.82L321.43 13.54C321.43 13.38 321.33 13.30 321.15 13.29L321.01 13.29C320.94 13.29 320.84 13.27 320.70 13.27C320.56 13.27 320.40 13.26 320.24 13.26L320.24 4.52L323.12 4.52C323.16 5.24 323.18 5.60 323.18 5.63C323.19 5.85 323.29 5.96 323.48 5.96L323.82 5.96L323.82 3.92ZM333.12 3.92L331.93 3.92L331.93 4.19C331.93 4.34 332.02 4.42 332.21 4.44L332.35 4.44C332.42 4.44 332.51 4.45 332.65 4.45C332.79 4.45 332.95 4.47 333.12 4.47L333.12 13.26C332.95 13.26 332.79 13.27 332.65 13.27C332.51 13.27 332.42 13.29 332.35 13.29L332.21 13.29C332.02 13.30 331.94 13.38 331.94 13.54L331.94 13.82L333.12 13.82L339.05 13.82L339.05 13.22L339.05 11.76L338.70 11.76C338.51 11.76 338.42 11.89 338.41 12.11C338.41 12.14 338.39 12.19 338.39 12.29C338.39 12.39 338.39 12.53 338.38 12.74C338.37 12.95 338.35 13.09 338.35 13.22L333.83 13.22L333.83 9.09L337.78 9.09L337.78 8.51L333.83 8.51L333.83 4.51L338.35 4.51C338.38 5.12 338.41 5.50 338.41 5.63C338.42 5.85 338.51 5.96 338.70 5.96L339.05 5.96L339.05 4.51L339.05 3.92ZM353.36 9.91C353.22 9.65 353.02 9.39 352.79 9.21C352.55 9.03 352.30 8.88 352.00 8.75C351.71 8.62 351.39 8.51 351.08 8.41C350.77 8.32 350.46 8.20 350.17 8.11C349.87 7.99 349.61 7.87 349.37 7.71C349.13 7.56 348.95 7.38 348.81 7.15C348.67 6.93 348.59 6.65 348.59 6.31C348.59 6.06 348.64 5.82 348.74 5.59C348.84 5.35 348.98 5.15 349.16 4.97C349.34 4.79 349.57 4.65 349.85 4.55C350.13 4.45 350.43 4.40 350.80 4.40C351.47 4.40 352.09 4.51 352.65 4.75C352.69 5.54 352.72 5.99 352.72 6.06C352.73 6.29 352.81 6.41 353.01 6.41L353.35 6.41L353.35 4.38C352.46 4.00 351.62 3.81 350.80 3.81C350.34 3.81 349.93 3.88 349.57 4.02C349.20 4.16 348.91 4.34 348.67 4.58C348.43 4.82 348.24 5.08 348.11 5.39C347.98 5.70 347.93 6.02 347.93 6.36C347.93 6.78 348.00 7.14 348.14 7.42C348.28 7.70 348.47 7.92 348.71 8.12C348.95 8.32 349.20 8.46 349.50 8.58C349.79 8.71 350.11 8.82 350.42 8.92C350.73 9.02 351.02 9.11 351.33 9.21C351.62 9.31 351.89 9.45 352.13 9.60C352.37 9.76 352.55 9.94 352.69 10.16C352.83 10.39 352.90 10.68 352.90 11.03C352.90 11.35 352.84 11.66 352.73 11.94C352.62 12.22 352.46 12.46 352.25 12.67C352.04 12.88 351.78 13.05 351.47 13.16C351.16 13.29 350.81 13.33 350.42 13.33C349.64 13.33 348.98 13.20 348.45 12.95C348.43 12.75 348.43 12.54 348.42 12.32C348.40 12.10 348.40 11.91 348.39 11.76C348.38 11.61 348.38 11.52 348.38 11.51C348.36 11.28 348.26 11.17 348.07 11.17L347.73 11.17L347.73 13.02L347.73 13.20L347.73 13.38C348.59 13.75 349.47 13.93 350.39 13.93C350.90 13.93 351.34 13.85 351.74 13.69C352.13 13.54 352.46 13.31 352.73 13.05C353.00 12.78 353.22 12.46 353.36 12.10C353.50 11.73 353.57 11.34 353.57 10.92C353.57 10.51 353.50 10.18 353.36 9.91Z"></path></g></svg>